<?xml version="1.0" encoding="UTF-8" standalone="no" ?>
<!DOCTYPE svg PUBLIC "-//W3C//DTD SVG 1.1//EN" "http://www.w3.org/Graphics/SVG/1.1/DTD/svg11.dtd">
<svg xmlns="http://www.w3.org/2000/svg" xmlns:xlink="http://www.w3.org/1999/xlink" version="1.1" width="3000" height="3000" viewBox="0 0 3000 3000" xml:space="preserve">
<desc>Created with Fabric.js 4.6.0</desc>
<defs>
</defs>
<g transform="matrix(0.28 0 0 1.94 277.74 1263.03)" id="EDBEf4RK2tiuyoftbnIjW"  >
<path style="stroke: rgb(212,168,242); stroke-width: 0; stroke-dasharray: none; stroke-linecap: butt; stroke-dashoffset: 0; stroke-linejoin: miter; stroke-miterlimit: 4; fill: rgb(94,136,255); fill-rule: nonzero; opacity: 1;" vector-effect="non-scaling-stroke"  transform=" translate(0, 0)" d="M -480 -480 L 480 -480 L 480 480 L -480 480 z" stroke-linecap="round" />
</g>
<g transform="matrix(0.28 0 0 1.92 1327.74 1253.87)" id="pSUDnBiELigLruoIx_if_"  >
<path style="stroke: rgb(212,168,242); stroke-width: 0; stroke-dasharray: none; stroke-linecap: butt; stroke-dashoffset: 0; stroke-linejoin: miter; stroke-miterlimit: 4; fill: rgb(94,136,255); fill-rule: nonzero; opacity: 1;" vector-effect="non-scaling-stroke"  transform=" translate(0, 0)" d="M -480 -480 L 480 -480 L 480 480 L -480 480 z" stroke-linecap="round" />
</g>
<g transform="matrix(0.28 0 0 0.76 1853.6 861.83)" id="beZz5O8ow3AlN_vBLyS6o"  >
<path style="stroke: rgb(212,168,242); stroke-width: 0; stroke-dasharray: none; stroke-linecap: butt; stroke-dashoffset: 0; stroke-linejoin: miter; stroke-miterlimit: 4; fill: rgb(94,136,255); fill-rule: nonzero; opacity: 1;" vector-effect="non-scaling-stroke"  transform=" translate(0, 0)" d="M -480 -480 L 480 -480 L 480 480 L -480 480 z" stroke-linecap="round" />
</g>
<g transform="matrix(0.28 0 0 0.75 1853.6 1684.44)" id="38Don7xyofvmUCNak8j9x"  >
<path style="stroke: rgb(212,168,242); stroke-width: 0; stroke-dasharray: none; stroke-linecap: butt; stroke-dashoffset: 0; stroke-linejoin: miter; stroke-miterlimit: 4; fill: rgb(94,136,255); fill-rule: nonzero; opacity: 1;" vector-effect="non-scaling-stroke"  transform=" translate(0, 0)" d="M -480 -480 L 480 -480 L 480 480 L -480 480 z" stroke-linecap="round" />
</g>
<g transform="matrix(0.28 0 0 1.94 2518.67 1245.27)" id="2rejx3AjCSsCBg5camBqR"  >
<path style="stroke: rgb(212,168,242); stroke-width: 0; stroke-dasharray: none; stroke-linecap: butt; stroke-dashoffset: 0; stroke-linejoin: miter; stroke-miterlimit: 4; fill: rgb(94,136,255); fill-rule: nonzero; opacity: 1;" vector-effect="non-scaling-stroke"  transform=" translate(0, 0)" d="M -480 -480 L 480 -480 L 480 480 L -480 480 z" stroke-linecap="round" />
</g>
<g transform="matrix(0 0.28 -0.74 0 1548.67 466.47)" id="zxyjdtwQfD8P9A1pNrNle"  >
<path style="stroke: rgb(212,168,242); stroke-width: 0; stroke-dasharray: none; stroke-linecap: butt; stroke-dashoffset: 0; stroke-linejoin: miter; stroke-miterlimit: 4; fill: rgb(94,136,255); fill-rule: nonzero; opacity: 1;" vector-effect="non-scaling-stroke"  transform=" translate(0, 0)" d="M -480 -480 L 480 -480 L 480 480 L -480 480 z" stroke-linecap="round" />
</g>
<g transform="matrix(0 0.28 -0.74 0 2518.67 448.47)" id="e3TS7QpvPXdGYVjK93Jvg"  >
<path style="stroke: rgb(212,168,242); stroke-width: 0; stroke-dasharray: none; stroke-linecap: butt; stroke-dashoffset: 0; stroke-linejoin: miter; stroke-miterlimit: 4; fill: rgb(94,136,255); fill-rule: nonzero; opacity: 1;" vector-effect="non-scaling-stroke"  transform=" translate(0, 0)" d="M -480 -480 L 480 -480 L 480 480 L -480 480 z" stroke-linecap="round" />
</g>
<g transform="matrix(0 0.28 -0.74 0 2518.67 2042.07)" id="v9M6jQ7JdH2JIuL48nDI8"  >
<path style="stroke: rgb(212,168,242); stroke-width: 0; stroke-dasharray: none; stroke-linecap: butt; stroke-dashoffset: 0; stroke-linejoin: miter; stroke-miterlimit: 4; fill: rgb(94,136,255); fill-rule: nonzero; opacity: 1;" vector-effect="non-scaling-stroke"  transform=" translate(0, 0)" d="M -480 -480 L 480 -480 L 480 480 L -480 480 z" stroke-linecap="round" />
</g>
<g transform="matrix(0 0.28 -0.74 0 1588.8 1296.07)" id="2dhwZGvck_Fs4OEkzmGFC"  >
<path style="stroke: rgb(212,168,242); stroke-width: 0; stroke-dasharray: none; stroke-linecap: butt; stroke-dashoffset: 0; stroke-linejoin: miter; stroke-miterlimit: 4; fill: rgb(94,136,255); fill-rule: nonzero; opacity: 1;" vector-effect="non-scaling-stroke"  transform=" translate(0, 0)" d="M -480 -480 L 480 -480 L 480 480 L -480 480 z" stroke-linecap="round" />
</g>
<g transform="matrix(0 0.28 -0.74 0 1548.8 2041.27)" id="Yf9FBbhhhiWFLVFdT_yWL"  >
<path style="stroke: rgb(212,168,242); stroke-width: 0; stroke-dasharray: none; stroke-linecap: butt; stroke-dashoffset: 0; stroke-linejoin: miter; stroke-miterlimit: 4; fill: rgb(94,136,255); fill-rule: nonzero; opacity: 1;" vector-effect="non-scaling-stroke"  transform=" translate(0, 0)" d="M -480 -480 L 480 -480 L 480 480 L -480 480 z" stroke-linecap="round" />
</g>
<g transform="matrix(0 3.6 -3.73 0 1350.8 1429.97)" id="4UFathW83iUTAPs2YTe7O"  >
<path style="stroke: rgb(212,168,242); stroke-width: 0; stroke-dasharray: none; stroke-linecap: butt; stroke-dashoffset: 0; stroke-linejoin: miter; stroke-miterlimit: 4; fill: rgb(94,136,255); fill-rule: nonzero; opacity: 1;" vector-effect="non-scaling-stroke"  transform=" translate(0, 0)" d="M -480 -480 L 480 -480 L 480 480 L -480 480 z" stroke-linecap="round" />
</g>
<g transform="matrix(0 0.28 -0.84 0 546.21 1244.47)" id="mAwuIPV0zQP-UOp08tlfq"  >
<path style="stroke: rgb(212,168,242); stroke-width: 0; stroke-dasharray: none; stroke-linecap: butt; stroke-dashoffset: 0; stroke-linejoin: miter; stroke-miterlimit: 4; fill: rgb(94,136,255); fill-rule: nonzero; opacity: 1;" vector-effect="non-scaling-stroke"  transform=" translate(0, 0)" d="M -480 -480 L 480 -480 L 480 480 L -480 480 z" stroke-linecap="round" />
</g>
</svg>